<svg width="25" height="24" viewBox="0 0 25 24" fill="none" xmlns="http://www.w3.org/2000/svg">
<path d="M18.002 16H17.422L16.612 15.19C17.502 14 18.002 12.5 18.002 11C18.002 7.13 14.872 4 11.002 4C9.50195 4 8.00195 4.5 6.79195 5.4C3.70195 7.72 3.07195 12.11 5.39195 15.2C7.71195 18.29 12.102 18.92 15.192 16.6L16.002 17.41V18L21.002 23L23.002 21L18.002 16ZM11.002 16C8.24195 16 6.00195 13.76 6.00195 11C6.00195 8.24 8.24195 6 11.002 6C13.762 6 16.002 8.24 16.002 11C16.002 13.76 13.762 16 11.002 16ZM3.00195 6L1.00195 8V1H8.00195L6.00195 3H3.00195V6ZM21.002 1V8L19.002 6V3H16.002L14.002 1H21.002ZM6.00195 19L8.00195 21H1.00195V14L3.00195 16V19H6.00195Z" fill="black"/>
</svg>
